<svg width="197" height="216" viewBox="0 0 197 216" fill="none" xmlns="http://www.w3.org/2000/svg">
<rect width="197" height="216" fill="#1E1E1E"/>
<g id="Frame 1">
<path id="bottom" d="M55 179.937V175H142V179.937C107.725 190.783 88.6686 190.592 55 179.937Z" fill="#0C7B83"/>
<rect id="handle" x="166.097" y="38.3571" width="3.2449" height="8.92347" fill="#D9D9D9"/>
<path id="back" d="M53.3367 175.048C43.8761 154.841 39.492 126.346 33.0561 49.7143L162.041 52.148C157.42 108.314 153.879 136.877 143.383 175.048C107.592 183.612 87.9058 183.201 53.3367 175.048Z" fill="#FFF3CF"/>
<path id="fill" d="M53.3367 175.048C43.8761 154.841 39.492 126.346 33.0561 49.7143L162.041 52.148C157.42 108.314 153.879 136.877 143.383 175.048C107.592 183.612 87.9058 183.201 53.3367 175.048Z" fill="#FFF3CF"/>
<path id="top3" d="M29 48.9031V38.3571H166.503V48.9031C162.244 52.8888 157.731 54.2809 146.222 55.3929C109.605 58.2432 89.8065 58.6723 56.9872 55.3929C42.0852 54.0832 36.1288 52.6188 29 48.9031Z" fill="#0C7B83"/>
<ellipse id="top2" cx="97.5485" cy="37.9515" rx="68.5485" ry="10.9515" fill="#08785B"/>
<ellipse id="top1" cx="97.9541" cy="37.9515" rx="60.8418" ry="6.89541" fill="#FFF3CF"/>
</g>
</svg>
