<svg width="71" height="78" viewBox="0 0 71 78" fill="none" xmlns="http://www.w3.org/2000/svg">
<path d="M35.5 77.8262C30.6262 77.8262 26.0616 76.9016 21.8062 75.0525C17.5479 73.2004 13.8291 70.6862 10.65 67.51C7.4708 64.3308 4.95664 60.612 3.10747 56.3537C1.25539 52.0954 0.329346 47.5308 0.329346 42.66C0.329346 37.7862 1.25539 33.2202 3.10747 28.9618C4.95956 24.7035 7.47372 20.9862 10.65 17.81C13.8262 14.6337 17.545 12.1195 21.8062 10.2675C26.0675 8.41537 30.6321 7.48933 35.5 7.48933V2.47558C35.5 1.68516 35.8675 1.1485 36.6025 0.865582C37.3375 0.582665 37.985 0.721206 38.545 1.28121L47.8331 10.5693C48.5389 11.2781 48.8918 12.1035 48.8918 13.0456C48.8918 13.9877 48.5389 14.8116 47.8331 15.5175L38.545 24.8056C37.985 25.3656 37.3375 25.5041 36.6025 25.2212C35.8675 24.9383 35.5 24.4016 35.5 23.6112V18.5975C28.8587 18.5975 23.1887 20.9425 18.49 25.6325C13.7912 30.3225 11.4404 36.0027 11.4375 42.6731C11.4375 46.7477 12.3679 50.5218 14.2287 53.9956C16.0866 57.4723 18.6227 60.2897 21.8368 62.4481C22.7789 60.7418 24.2285 59.2893 26.1856 58.0906C28.1427 56.8947 30.3958 56.1423 32.945 55.8331C32.7496 54.5264 32.4914 53.2197 32.1706 51.9131C31.8498 50.6064 31.4896 49.4091 31.09 48.3212C30.4104 48.8725 29.6696 49.2998 28.8675 49.6031C28.0654 49.9064 27.2021 50.0595 26.2775 50.0625C24.2416 50.0625 22.4931 49.3377 21.0318 47.8881C19.5735 46.4385 18.8443 44.6958 18.8443 42.66V38.9587C18.8443 38.5416 18.8035 38.0604 18.7218 37.515C18.6402 36.9695 18.5337 36.4956 18.4025 36.0931C18.0787 35.4602 18.1123 34.8681 18.5031 34.3168C18.891 33.7627 19.4014 33.4943 20.0343 33.5118C22.8285 33.6372 25.7787 34.3227 28.885 35.5681C31.9883 36.8135 33.5764 39.176 33.6493 42.6556C33.6493 43.2302 33.5954 43.7552 33.4875 44.2306C33.3796 44.706 33.206 45.18 32.9668 45.6525C32.1706 45.0283 31.3743 44.4668 30.5781 43.9681C29.7818 43.4693 28.955 43.0318 28.0975 42.6556C29.1679 43.4927 30.3783 44.7381 31.7287 46.3918C33.0791 48.0456 34.3362 50.0041 35.5 52.2675C36.7891 49.2545 38.351 46.2825 40.1856 43.3512C42.0202 40.42 44.161 37.722 46.6081 35.2575C45.2081 36.255 43.8562 37.2977 42.5525 38.3856C41.2487 39.4735 39.9785 40.662 38.7418 41.9512C38.3423 41.26 38.0112 40.4972 37.7487 39.6631C37.4833 38.826 37.3506 37.9743 37.3506 37.1081C37.3506 34.5472 38.2548 32.3641 40.0631 30.5587C41.8714 28.7533 44.0589 27.8506 46.6256 27.8506L50.3006 27.8506C51.1581 27.8506 52.0812 27.7368 53.07 27.5093C54.0616 27.2818 54.8739 26.8589 55.5068 26.2406C55.9618 25.8439 56.4621 25.755 57.0075 25.9737C57.55 26.1895 57.8212 26.6095 57.8212 27.2337C57.8212 28.7883 57.7118 30.655 57.4931 32.8337C57.2743 35.0125 56.7756 37.0993 55.9968 39.0943C55.2181 41.0893 54.0893 42.7941 52.6106 44.2087C51.1318 45.6233 49.1339 46.3306 46.6168 46.3306C45.6952 46.3306 44.8187 46.2066 43.9875 45.9587C43.1562 45.7137 42.4023 45.3754 41.7256 44.9437C41.2968 46.1133 40.8054 47.6664 40.2512 49.6031C39.6971 51.5398 39.2668 53.6252 38.9606 55.8593C41.2881 56.2939 43.3414 57.0989 45.1206 58.2743C46.8969 59.4468 48.2444 60.8381 49.1631 62.4481C51.721 60.6689 53.8779 58.4479 55.6337 55.785C57.3895 53.122 58.581 50.1806 59.2081 46.9606C59.4618 45.4148 60.1356 44.1212 61.2293 43.08C62.3202 42.0358 63.6152 41.5137 65.1143 41.5137C66.701 41.5137 68.0281 42.0897 69.0956 43.2418C70.1602 44.3968 70.5729 45.7414 70.3337 47.2756C69.2487 55.9381 65.4235 63.1962 58.8581 69.05C52.2927 74.9037 44.5066 77.8291 35.5 77.8262Z" fill="white"/>
</svg>
