<svg width="50" height="50" viewBox="0 0 50 50" fill="none" xmlns="http://www.w3.org/2000/svg">
<rect x="0.385835" y="0.385865" width="49.0083" height="49.0083" rx="22.7661" fill="#FF2828" stroke="#FF2828" stroke-width="0.771731"/>
<rect x="8.91976" y="8.91959" width="31.2297" height="31.2297" stroke="#FF2828" stroke-width="0.771731"/>
<path d="M36.7672 21.3868C36.296 20.8943 35.8084 20.3868 35.6247 19.9405C35.4547 19.5317 35.4447 18.8542 35.4347 18.1979C35.4159 16.9779 35.3959 15.5953 34.4346 14.634C33.4733 13.6727 32.0908 13.6527 30.8707 13.634C30.2144 13.624 29.5369 13.614 29.1281 13.444C28.6831 13.2602 28.1744 12.7727 27.6818 12.3014C26.8193 11.4726 25.8393 10.5338 24.5342 10.5338C23.2291 10.5338 22.2503 11.4726 21.3866 12.3014C20.894 12.7727 20.3865 13.2602 19.9402 13.444C19.534 13.614 18.8539 13.624 18.1977 13.634C16.9776 13.6527 15.595 13.6727 14.6338 14.634C13.6725 15.5953 13.6587 16.9779 13.6337 18.1979C13.6237 18.8542 13.6137 19.5317 13.4437 19.9405C13.2599 20.3855 12.7724 20.8943 12.3011 21.3868C11.4724 22.2494 10.5336 23.2294 10.5336 24.5345C10.5336 25.8395 11.4724 26.8183 12.3011 27.6821C12.7724 28.1746 13.2599 28.6822 13.4437 29.1284C13.6137 29.5372 13.6237 30.2147 13.6337 30.871C13.6525 32.0911 13.6725 33.4736 14.6338 34.4349C15.595 35.3962 16.9776 35.4162 18.1977 35.435C18.8539 35.445 19.5315 35.455 19.9402 35.625C20.3853 35.8087 20.894 36.2962 21.3866 36.7675C22.2491 37.5963 23.2291 38.5351 24.5342 38.5351C25.8393 38.5351 26.818 37.5963 27.6818 36.7675C28.1744 36.2962 28.6819 35.8087 29.1281 35.625C29.5369 35.455 30.2144 35.445 30.8707 35.435C32.0908 35.4162 33.4733 35.3962 34.4346 34.4349C35.3959 33.4736 35.4159 32.0911 35.4347 30.871C35.4447 30.2147 35.4547 29.5372 35.6247 29.1284C35.8084 28.6834 36.296 28.1746 36.7672 27.6821C37.596 26.8196 38.5348 25.8395 38.5348 24.5345C38.5348 23.2294 37.596 22.2506 36.7672 21.3868ZM23.5341 18.5342C23.5341 18.269 23.6395 18.0146 23.8271 17.8271C24.0146 17.6395 24.269 17.5342 24.5342 17.5342C24.7994 17.5342 25.0538 17.6395 25.2413 17.8271C25.4289 18.0146 25.5342 18.269 25.5342 18.5342V25.5345C25.5342 25.7997 25.4289 26.0541 25.2413 26.2417C25.0538 26.4292 24.7994 26.5346 24.5342 26.5346C24.269 26.5346 24.0146 26.4292 23.8271 26.2417C23.6395 26.0541 23.5341 25.7997 23.5341 25.5345V18.5342ZM24.5342 31.5348C24.2375 31.5348 23.9475 31.4468 23.7008 31.282C23.4541 31.1171 23.2618 30.8829 23.1483 30.6088C23.0348 30.3347 23.0051 30.033 23.0629 29.7421C23.1208 29.4511 23.2637 29.1838 23.4735 28.974C23.6833 28.7642 23.9506 28.6214 24.2415 28.5635C24.5325 28.5056 24.8341 28.5353 25.1082 28.6488C25.3823 28.7624 25.6166 28.9546 25.7815 29.2013C25.9463 29.448 26.0343 29.738 26.0343 30.0347C26.0343 30.4326 25.8762 30.8141 25.5949 31.0954C25.3136 31.3767 24.932 31.5348 24.5342 31.5348Z" fill="white"/>
</svg>
