<svg width="43" height="43" viewBox="0 0 43 43" fill="none" xmlns="http://www.w3.org/2000/svg">
<g clip-path="url(#clip0_1605_134)">
<path d="M36.2992 21.2312C36.2518 17.3264 34.6759 13.5957 31.9096 10.8395C30.5397 9.48702 28.9129 8.42246 27.1251 7.70857C25.3373 6.99469 23.4247 6.64592 21.5 6.68283C17.5365 6.74407 13.7572 8.36653 10.9829 11.1978C9.59499 12.5739 8.50006 14.2167 7.76412 16.0273C7.02819 17.8378 6.66649 19.7787 6.70084 21.7328C6.69849 23.644 7.07318 25.5369 7.80347 27.303C8.53376 29.0692 9.60529 30.6739 10.9567 32.0253C12.3081 33.3767 13.9128 34.4482 15.679 35.1785C17.4451 35.9088 19.338 36.2835 21.2492 36.2812C23.2296 36.2955 25.193 35.9159 27.0254 35.1647C28.8578 34.4134 30.5226 33.3054 31.923 31.905C33.3234 30.5046 34.4314 28.8398 35.1827 27.0074C35.934 25.175 36.3135 23.2115 36.2992 21.2312ZM19.7083 14.3332C19.7083 13.8581 19.8971 13.4023 20.2331 13.0663C20.5691 12.7303 21.0248 12.5416 21.5 12.5416C21.9752 12.5416 22.4309 12.7303 22.7669 13.0663C23.1029 13.4023 23.2917 13.8581 23.2917 14.3332V22.3957C23.2917 22.8709 23.1029 23.3266 22.7669 23.6626C22.4309 23.9986 21.9752 24.1874 21.5 24.1874C21.0248 24.1874 20.5691 23.9986 20.2331 23.6626C19.8971 23.3266 19.7083 22.8709 19.7083 22.3957V14.3332ZM21.5 30.4582C20.906 30.4582 20.3364 30.2223 19.9164 29.8023C19.4964 29.3823 19.2604 28.8126 19.2604 28.2187C19.2604 27.6247 19.4964 27.055 19.9164 26.635C20.3364 26.215 20.906 25.9791 21.5 25.9791C22.094 25.9791 22.6636 26.215 23.0836 26.635C23.5036 27.055 23.7396 27.6247 23.7396 28.2187C23.7396 28.8126 23.5036 29.3823 23.0836 29.8023C22.6636 30.2223 22.094 30.4582 21.5 30.4582Z" fill="#FFDD00"/>
<path d="M9.28085 34.5791C7.49361 32.9034 6.06903 30.879 5.09517 28.6309C4.1213 26.3828 3.61884 23.9589 3.61884 21.5089C3.61884 19.059 4.1213 16.6351 5.09517 14.387C6.06903 12.1389 7.49361 10.1144 9.28085 8.43872C9.62535 8.10372 9.82267 7.64558 9.82939 7.1651C9.83611 6.68461 9.65168 6.22114 9.31668 5.87664C8.98168 5.53213 8.52355 5.33481 8.04306 5.32809C7.56258 5.32137 7.0991 5.5058 6.7546 5.8408C4.60999 7.84424 2.90287 10.2695 1.74047 12.9643C0.57807 15.6591 -0.0144897 18.5652 1.58778e-05 21.5C0.00638818 24.4504 0.616935 27.3683 1.79403 30.0737C2.97112 32.7792 4.68981 35.2149 6.84418 37.2308C7.18787 37.5078 7.62171 37.6481 8.06252 37.625C8.30688 37.6265 8.54896 37.578 8.77389 37.4825C8.99882 37.3869 9.20182 37.2464 9.37043 37.0696C9.68162 36.724 9.84625 36.271 9.82953 35.8062C9.81282 35.3415 9.61606 34.9015 9.28085 34.5791ZM36.2096 5.78705C36.043 5.61912 35.8449 5.48583 35.6265 5.39487C35.4082 5.30391 35.174 5.25708 34.9375 5.25708C34.701 5.25708 34.4668 5.30391 34.2485 5.39487C34.0302 5.48583 33.832 5.61912 33.6654 5.78705C33.3434 6.13444 33.172 6.59525 33.1888 7.06867C33.2055 7.54209 33.4091 7.9896 33.755 8.3133C35.5626 9.99769 36.9996 12.0401 37.9744 14.3105C38.9492 16.5808 39.4404 19.0293 39.4167 21.5C39.4158 23.957 38.9096 26.3877 37.9294 28.6408C36.9493 30.8939 35.5162 32.9213 33.7192 34.597C33.5462 34.757 33.4065 34.9495 33.308 35.1635C33.2094 35.3775 33.154 35.6088 33.1449 35.8442C33.1357 36.0797 33.173 36.3146 33.2546 36.5356C33.3363 36.7566 33.4606 36.9593 33.6206 37.1323C33.7806 37.3052 33.9731 37.4449 34.1871 37.5435C34.4011 37.642 34.6324 37.6974 34.8678 37.7066C35.1033 37.7157 35.3382 37.6784 35.5592 37.5968C35.7802 37.5152 35.9829 37.3908 36.1558 37.2308C38.3096 35.2193 40.0269 32.7865 41.201 30.0835C42.375 27.3804 42.9809 24.4649 42.9809 21.5179C42.9809 18.5709 42.375 15.6553 41.201 12.9523C40.0269 10.2493 38.3096 7.81647 36.1558 5.80497L36.2096 5.78705Z" fill="#FFDD00"/>
</g>
<defs>
<clipPath id="clip0_1605_134">
<rect width="43" height="43" fill="white"/>
</clipPath>
</defs>
</svg>
